HIERARCHY
ROOT Hips
{
	OFFSET 0.000000 0.000000 0.000000
	CHANNELS 6 Xposition Yposition Zposition Zrotation Yrotation Xrotation 
	JOINT LHipJoint
	{
		OFFSET 0.000000 0.000000 0.000000
		CHANNELS 3 Zrotation Yrotation Xrotation
		JOINT LeftUpLeg
		{
			OFFSET 1.363060 -1.794630 0.839290
			CHANNELS 3 Zrotation Yrotation Xrotation
			JOINT LeftLeg
			{
				OFFSET 2.448110 -6.726130 0.000000
				CHANNELS 3 Zrotation Yrotation Xrotation
				JOINT LeftFoot
				{
					OFFSET 2.562200 -7.039590 0.000000
					CHANNELS 3 Zrotation Yrotation Xrotation
					JOINT LeftToeBase
					{
						OFFSET 0.157640 -0.433110 2.322550
						CHANNELS 3 Zrotation Yrotation Xrotation
						End Site
						{
							OFFSET 0.000000 0.000000 0.000000
						}
					}
				}
			}
		}
	}
	JOINT RHipJoint
	{
		OFFSET 0.000000 0.000000 0.000000
		CHANNELS 3 Zrotation Yrotation Xrotation
		JOINT RightUpLeg
		{
			OFFSET -1.305520 -1.794630 0.839290
			CHANNELS 3 Zrotation Yrotation Xrotation
			JOINT RightLeg
			{
				OFFSET -2.542530 -6.985550 0.000000
				CHANNELS 3 Zrotation Yrotation Xrotation
				JOINT RightFoot
				{
					OFFSET -2.568260 -7.056230 0.000000
					CHANNELS 3 Zrotation Yrotation Xrotation
					JOINT RightToeBase
					{
						OFFSET -0.164730 -0.452590 2.363150
						CHANNELS 3 Zrotation Yrotation Xrotation
						End Site
						{
							OFFSET 0.000000 0.000000 0.000000
						}
					}
				}
			}
		}
	}
	JOINT LowerBack
	{
		OFFSET 0.000000 0.000000 0.000000
		CHANNELS 3 Zrotation Yrotation Xrotation
		JOINT Spine
		{
			OFFSET 0.028270 2.035590 -0.193380
			CHANNELS 3 Zrotation Yrotation Xrotation
			JOINT Spine1
			{
				OFFSET 0.056720 2.048850 -0.042750
				CHANNELS 3 Zrotation Yrotation Xrotation
				JOINT Neck
				{
					OFFSET 0.000000 0.000000 0.000000
					CHANNELS 3 Zrotation Yrotation Xrotation
					JOINT Neck1
					{
						OFFSET -0.054170 1.746240 0.172020
						CHANNELS 3 Zrotation Yrotation Xrotation
						JOINT Head
						{
							OFFSET 0.104070 1.761360 -0.123970
							CHANNELS 3 Zrotation Yrotation Xrotation
							End Site
							{
								OFFSET 0.000000 0.000000 0.000000
							}
						}
					}
				}
				JOINT LeftShoulder
				{
					OFFSET 0.000000 0.000000 0.000000
					CHANNELS 3 Zrotation Yrotation Xrotation
					JOINT LeftArm
					{
						OFFSET 3.362410 1.200890 -0.311210
						CHANNELS 3 Zrotation Yrotation Xrotation
						JOINT LeftForeArm
						{
							OFFSET 4.983000 -0.000000 -0.000000
							CHANNELS 3 Zrotation Yrotation Xrotation
							JOINT LeftHand
							{
								OFFSET 3.483560 -0.000000 -0.000000
								CHANNELS 3 Zrotation Yrotation Xrotation
								JOINT LeftFingerBase
								{
									OFFSET 0.000000 0.000000 0.000000
									CHANNELS 3 Zrotation Yrotation Xrotation
									JOINT LeftHandIndex1
									{
										OFFSET 0.715260 -0.000000 -0.000000
										CHANNELS 3 Zrotation Yrotation Xrotation
										End Site
										{
											OFFSET 0.000000 0.000000 0.000000
										}
									}
								}
								JOINT LThumb
								{
									OFFSET 0.000000 0.000000 0.000000
									CHANNELS 3 Zrotation Yrotation Xrotation
									End Site
									{
										OFFSET 0.000000 0.000000 0.000000
									}
								}
							}
						}
					}
				}
				JOINT RightShoulder
				{
					OFFSET 0.000000 0.000000 0.000000
					CHANNELS 3 Zrotation Yrotation Xrotation
					JOINT RightArm
					{
						OFFSET -3.136600 1.374050 -0.404650
						CHANNELS 3 Zrotation Yrotation Xrotation
						JOINT RightForeArm
						{
							OFFSET -5.241900 -0.000000 -0.000000
							CHANNELS 3 Zrotation Yrotation Xrotation
							JOINT RightHand
							{
								OFFSET -3.444170 -0.000000 -0.000000
								CHANNELS 3 Zrotation Yrotation Xrotation
								JOINT RightFingerBase
								{
									OFFSET 0.000000 0.000000 0.000000
									CHANNELS 3 Zrotation Yrotation Xrotation
									JOINT RightHandIndex1
									{
										OFFSET -0.622530 -0.000000 -0.000000
										CHANNELS 3 Zrotation Yrotation Xrotation
										End Site
										{
											OFFSET 0.000000 0.000000 0.000000
										}
									}
								}
								JOINT RThumb
								{
									OFFSET 0.000000 0.000000 0.000000
									CHANNELS 3 Zrotation Yrotation Xrotation
									End Site
									{
										OFFSET 0.000000 0.000000 0.000000
									}
								}
							}
						}
					}
				}
			}
		}
	}
}
MOTION
Frames: 11
Frame Time: 0.008333
3.566466 17.944170 2.125354 10.120404 -48.770403 16.118574 0.970073 1.802969 -1.912705 -26.156710 -12.157249 -12.636554 -1.660890 -0.128405 0.416059 -6.588675 27.532041 -0.030337 0.095600 1.994200 5.489600 -5.493809 -2.992562 -1.866773 -6.374755 13.157548 -6.550353 -0.253689 -5.619867 15.071941 6.234900 -25.022278 -15.991523 -4.077600 -12.263000 36.668800 -3.035173 1.782862 -2.128715 -2.907315 1.423866 -27.486326 2.223549 1.084444 -4.956844 12.246799 19.582651 -10.503060 1.268142 25.339572 7.280945 -0.023800 12.730400 5.632300 0.788426 -9.545776 2.670669 34.819055 -0.937912 -24.550028 16.714859 -28.277448 -4.484112 1.681275 -0.056856 -39.361921 34.322483 -22.095040 -13.181400 -7.125000 0.000000 0.000000 2.763800 5.295200 -2.499900 1.108614 10.979181 5.661706 -20.179408 -23.338031 -23.538125 -148.004596 41.090400 -106.265570 1.209164 -1.030350 -56.946285 -9.057167 -47.561170 6.395200 7.125000 0.000000 0.000000 47.682000 -71.196200 -31.908400 
3.564942 17.949858 2.112961 9.858262 -48.772852 16.253574 0.974807 1.804127 -1.903460 -25.906581 -12.092160 -12.656818 -1.663722 -0.128905 0.422862 -6.579501 27.442052 -0.227415 0.118600 2.220400 6.115200 -5.486601 -3.007479 -1.876544 -6.140571 13.297413 -6.546847 -0.282804 -5.662045 15.149881 6.649285 -26.232228 -15.404110 -3.686000 -11.730400 34.784600 -2.980535 1.749146 -1.968943 -2.708155 1.432393 -27.492424 2.205000 1.066707 -5.044500 12.380679 19.642356 -10.517733 1.244968 25.411198 7.348714 -0.031100 12.768800 5.677100 0.766829 -9.528048 2.666798 34.780789 -0.925884 -24.644418 16.758581 -28.330795 -4.501692 1.666883 -0.050699 -39.078709 34.059933 -21.563526 -12.759900 -7.125000 0.000000 0.000000 2.683500 5.940200 -2.394000 1.091945 10.988914 5.662880 -20.182861 -23.193418 -23.563713 -147.998319 41.099952 -106.263646 1.215676 -0.998645 -57.090155 -7.935869 -46.959122 5.543400 7.125000 0.000000 0.000000 47.340100 -70.446300 -30.930200 
3.562708 17.947116 2.102092 9.976791 -48.918003 16.094370 0.982345 1.817319 -1.890422 -25.930699 -11.980170 -12.721210 -1.665945 -0.129437 0.432795 -6.555473 27.310682 -0.477144 0.158200 2.562900 7.064200 -5.478132 -3.020832 -1.912906 -6.238905 13.231675 -6.709432 -0.367294 -5.769168 15.313964 7.388407 -28.311939 -13.481079 -2.927800 -10.577200 30.866900 -3.141818 1.811812 -1.862259 -2.607668 1.549197 -27.558575 2.273328 1.138467 -5.131720 12.415868 19.590482 -10.023086 0.893813 25.387912 6.985206 -0.196400 12.743000 5.533900 0.755884 -9.532293 2.683000 34.642220 -1.113058 -24.552650 16.771021 -28.307307 -4.499371 1.664537 -0.046994 -39.051899 33.958895 -21.459890 -12.655100 -7.125000 0.000000 0.000000 2.635000 6.075500 -2.343900 1.074191 10.973375 5.641463 -20.368736 -23.199912 -23.424458 -148.014261 41.125246 -106.274129 1.221787 -0.967788 -57.160144 -7.043908 -46.313028 4.868700 7.125000 0.000000 0.000000 46.769700 -69.745900 -29.833000 
3.560270 17.942951 2.093762 10.305230 -49.008801 15.848472 0.980637 1.827704 -1.883833 -26.129097 -11.966461 -12.759246 -1.666144 -0.130323 0.436372 -6.533781 27.230582 -0.573657 0.040800 1.304000 3.585600 -5.478603 -3.026362 -1.940915 -6.496070 13.068746 -6.873737 -0.431782 -5.847024 15.425235 7.798839 -29.482096 -11.948104 -2.476100 -9.794400 28.313400 -3.292632 1.865563 -1.912707 -2.760352 1.581594 -27.554620 2.341855 1.186961 -5.092973 12.390926 19.493670 -9.407364 0.471715 25.308799 6.268791 -0.406100 12.682800 5.257300 0.766524 -9.558697 2.689534 34.692701 -1.309584 -24.725730 16.677143 -28.159738 -4.453045 1.665668 -0.057990 -38.952680 33.922602 -21.627791 -12.732100 -7.125000 0.000000 0.000000 2.589800 5.900200 -2.312300 1.079172 10.942259 5.625412 -20.389623 -23.258819 -23.415094 -148.032168 41.115734 -106.290255 1.221514 -0.954477 -57.144778 -6.609794 -45.932055 4.538900 7.125000 0.000000 0.000000 46.391200 -69.361500 -29.186800 
3.560067 17.946303 2.079440 10.427243 -49.008847 15.775117 0.977044 1.835487 -1.878102 -26.185699 -12.007882 -12.788829 -1.666037 -0.129226 0.433834 -6.532811 27.234767 -0.572690 0.172300 2.673600 7.371400 -5.480796 -3.029239 -1.955396 -6.557860 13.108327 -6.980666 -0.482180 -5.917885 15.563045 8.003356 -30.084238 -10.825582 -2.146300 -9.164400 26.310800 -3.389977 1.866786 -1.852788 -2.865387 1.554526 -27.533290 2.388095 1.189886 -5.135410 12.209802 19.504481 -9.612403 0.752977 25.310993 6.389872 -0.293100 12.691200 5.269800 0.780272 -9.557160 2.680621 34.873947 -1.356130 -24.572244 16.594977 -28.080208 -4.423832 1.665428 -0.062560 -39.399381 33.790107 -21.939338 -12.844200 -7.125000 0.000000 0.000000 2.467600 5.590900 -2.217500 1.090339 10.937999 5.632261 -20.269885 -23.348343 -23.439479 -148.115493 41.025018 -106.356454 1.220022 -0.963998 -57.024976 -6.717099 -46.213271 4.633200 7.125000 0.000000 0.000000 46.867900 -69.576600 -29.740800 
3.559762 17.946506 2.067149 10.572383 -49.054412 15.649299 0.975388 1.843036 -1.873667 -26.315723 -11.991195 -12.768263 -1.665625 -0.129342 0.434921 -6.557141 27.318912 -0.618723 0.141200 2.421400 6.671700 -5.488953 -3.013939 -1.949947 -6.651481 13.151727 -7.035913 -0.483573 -5.949414 15.680680 7.776712 -29.402188 -11.040020 -2.291800 -9.449200 27.210700 -3.485651 1.865437 -1.799463 -2.931945 1.539494 -27.479278 2.430346 1.189575 -5.180445 12.211448 19.547030 -10.411266 1.188266 25.310030 7.315488 -0.055600 12.713300 5.628900 0.786664 -9.531053 2.669317 34.953546 -1.291313 -24.158426 16.595762 -28.119952 -4.432753 1.663593 -0.054421 -40.024809 33.610894 -22.088687 -12.843100 -7.125000 0.000000 0.000000 2.338700 5.469200 -2.107000 1.106589 10.965292 5.647469 -20.218953 -23.445562 -23.402000 -148.304628 40.862298 -106.490024 1.211375 -1.008873 -56.943140 -8.251340 -47.188606 5.787600 7.125000 0.000000 0.000000 47.564900 -70.695900 -31.339100 
3.557832 17.942443 2.059835 10.896778 -49.130288 15.421370 0.967640 1.847747 -1.875236 -26.583157 -11.975383 -12.758311 -1.662526 -0.127423 0.430279 -6.585749 27.468950 -0.450781 0.111700 2.154500 5.932800 -5.501840 -2.997177 -1.943718 -6.899792 13.015081 -7.145236 -0.469539 -5.961103 15.741505 7.538012 -28.693761 -11.666460 -2.575400 -9.973800 28.891900 -3.557707 1.823502 -1.872130 -3.090274 1.443234 -27.403904 2.480528 1.151379 -5.121329 12.627185 19.523734 -10.561990 0.827860 25.257570 7.477821 -0.163800 12.679500 5.786200 0.793594 -9.525755 2.663143 34.939659 -1.091257 -23.939127 16.617519 -28.172692 -4.447209 1.684681 -0.057362 -40.128036 34.059872 -22.574555 -13.323100 -7.125000 0.000000 0.000000 2.534300 4.832700 -2.314100 1.121417 10.974223 5.653729 -20.152275 -23.278286 -23.495800 -148.347713 40.821886 -106.516465 1.202830 -1.037845 -56.902268 -9.245271 -47.687694 6.539900 7.125000 0.000000 0.000000 47.821900 -71.339000 -32.151600 
3.553362 17.942240 2.053943 10.985563 -49.244940 15.357815 0.961869 1.848769 -1.877255 -26.666556 -11.869871 -12.771303 -1.659515 -0.123248 0.426698 -6.594081 27.552332 -0.205640 0.082500 1.852700 5.098800 -5.501757 -3.006344 -1.954412 -6.985427 12.814549 -7.279528 -0.488796 -5.975573 15.727536 7.708098 -29.204018 -11.051147 -2.417300 -9.685900 27.965400 -3.536696 1.810292 -1.910709 -3.119066 1.413873 -27.425013 2.482169 1.139198 -5.083803 12.853298 19.509357 -9.831195 0.267543 25.284882 6.628734 -0.439600 12.670600 5.498400 0.794712 -9.543379 2.670499 34.872102 -0.935542 -23.773368 16.666553 -28.239326 -4.470700 1.715569 -0.054596 -39.952404 35.002142 -23.015381 -14.031900 -7.125000 0.000000 0.000000 3.024900 4.116400 -2.803900 1.111223 10.948497 5.646128 -20.102578 -23.012810 -23.493857 -148.252025 40.899780 -106.446264 1.204514 -1.029860 -56.887752 -8.819123 -47.513598 6.217000 7.125000 0.000000 0.000000 47.799900 -71.086500 -31.892500 
3.549705 17.947319 2.043074 10.700492 -49.275978 15.559875 0.967091 1.836727 -1.888494 -26.437025 -11.768436 -12.810061 -1.659467 -0.119504 0.425602 -6.595352 27.563952 -0.101871 0.074100 1.755800 4.831300 -5.497386 -3.006160 -1.943609 -6.779442 12.767756 -7.321054 -0.465829 -5.961367 15.728485 7.462306 -28.462847 -11.580382 -2.713900 -10.216800 29.681700 -3.468413 1.801820 -1.815397 -2.872161 1.466468 -27.553927 2.451352 1.143781 -5.167216 12.595364 19.575840 -9.279130 0.405991 25.415193 6.139851 -0.449700 12.736800 5.227600 0.780773 -9.553520 2.678698 34.821621 -0.833005 -23.415978 16.744929 -28.354820 -4.508490 1.719475 -0.024865 -40.061022 35.416372 -22.631593 -14.017700 -7.125000 0.000000 0.000000 3.329300 4.432300 -3.067300 1.078362 10.927875 5.636542 -20.170997 -22.788652 -23.299258 -148.178082 40.984822 -106.388709 1.208304 -1.014198 -56.868498 -8.242604 -47.166962 5.776200 7.125000 0.000000 0.000000 47.528200 -70.677900 -31.294200 
3.549401 17.952195 2.031088 10.443810 -49.220908 15.779352 0.976176 1.824806 -1.898052 -26.196490 -11.778443 -12.871060 -1.661773 -0.118483 0.425500 -6.602878 27.554330 -0.215961 0.094300 1.980700 5.452300 -5.489899 -3.005784 -1.933558 -6.568544 12.789440 -7.309676 -0.441774 -5.931455 15.682744 7.282491 -27.922840 -12.044616 -2.933100 -10.585900 30.895800 -3.426011 1.752287 -1.727838 -2.586297 1.477801 -27.671308 2.440102 1.120830 -5.246224 12.314996 19.661059 -9.061419 0.713043 25.547566 6.058084 -0.362300 12.810900 5.114500 0.760914 -9.555619 2.680577 34.737188 -0.810954 -23.505741 16.770488 -28.376775 -4.515041 1.697371 -0.016374 -39.867095 34.854154 -21.957333 -13.355100 -7.125000 0.000000 0.000000 3.096200 5.314800 -2.800300 1.048779 10.920590 5.632055 -20.233208 -22.444792 -23.218907 -148.096034 41.079470 -106.323581 1.211197 -0.999394 -56.780271 -7.633226 -46.838823 5.319000 7.125000 0.000000 0.000000 47.354700 -70.270300 -30.771100 
3.547268 17.951687 2.028243 10.423485 -49.239397 15.760045 0.972986 1.829941 -1.883512 -26.135332 -11.743513 -12.859397 -1.663876 -0.121513 0.433742 -6.583265 27.437739 -0.419071 0.125300 2.281900 6.285300 -5.481241 -3.032335 -1.952568 -6.529952 12.646347 -7.275651 -0.481544 -5.919300 15.564510 7.691970 -29.135568 -10.425319 -2.390600 -9.636200 27.806400 -3.299745 1.734082 -1.790248 -2.617175 1.442519 -27.570231 2.383392 1.094156 -5.141362 12.451384 19.700439 -9.163037 0.650675 25.587571 6.151201 -0.369100 12.830100 5.184400 0.754943 -9.549336 2.666376 34.751688 -0.778224 -23.805500 16.739385 -28.331255 -4.498439 1.681748 -0.031779 -39.483076 34.317767 -21.726839 -12.969900 -7.125000 0.000000 0.000000 2.808500 5.697400 -2.518900 1.060390 10.928387 5.645619 -20.043648 -22.219426 -23.358424 -148.099783 41.045002 -106.329311 1.208243 -0.999913 -56.685588 -7.327656 -46.835105 5.100300 7.125000 0.000000 0.000000 47.633900 -70.166400 -30.877600 
